<?xml version="1.0" encoding="utf-8"?>
<svg viewBox="-18.073 -10.757 441.911 172.739" width="441.911" height="172.739" xmlns="http://www.w3.org/2000/svg">
  <defs>
    <filter id="filter0_d" x="-8.39411" y="15.8291" width="116.727" height="92.2456" filterUnits="userSpaceOnUse" color-interpolation-filters="sRGB">
      <feFlood flood-opacity="0" result="BackgroundImageFix"/>
      <feColorMatrix in="SourceAlpha" type="matrix" values="0 0 0 0 0 0 0 0 0 0 0 0 0 0 0 0 0 0 127 0"/>
      <feOffset/>
      <feGaussianBlur stdDeviation="4.16667"/>
      <feColorMatrix type="matrix" values="0 0 0 0 0 0 0 0 0 0 0 0 0 0 0 0 0 0 0.25 0"/>
      <feBlend mode="overlay" in2="BackgroundImageFix" result="effect1_dropShadow"/>
      <feBlend mode="normal" in="SourceGraphic" in2="effect1_dropShadow" result="shape"/>
    </filter>
    <filter id="filter1_d" x="60.4167" y="-8.07558" width="47.9167" height="116.151" filterUnits="userSpaceOnUse" color-interpolation-filters="sRGB">
      <feFlood flood-opacity="0" result="BackgroundImageFix"/>
      <feColorMatrix in="SourceAlpha" type="matrix" values="0 0 0 0 0 0 0 0 0 0 0 0 0 0 0 0 0 0 127 0"/>
      <feOffset/>
      <feGaussianBlur stdDeviation="4.16667"/>
      <feColorMatrix type="matrix" values="0 0 0 0 0 0 0 0 0 0 0 0 0 0 0 0 0 0 0.25 0"/>
      <feBlend mode="overlay" in2="BackgroundImageFix" result="effect1_dropShadow"/>
      <feBlend mode="normal" in="SourceGraphic" in2="effect1_dropShadow" result="shape"/>
    </filter>
    <linearGradient id="paint0_linear" x1="49.9392" y1="0.257812" x2="49.9392" y2="99.7423" gradientUnits="userSpaceOnUse">
      <stop stop-color="white"/>
      <stop offset="1" stop-color="white" stop-opacity="0"/>
    </linearGradient>
  </defs>
  <mask id="mask0" mask-type="alpha" maskUnits="userSpaceOnUse" x="0" y="0" width="100" height="100">
    <path fill-rule="evenodd" clip-rule="evenodd" d="M70.9119 99.3171C72.4869 99.9307 74.2828 99.8914 75.8725 99.1264L96.4608 89.2197C98.6242 88.1787 100 85.9892 100 83.5872V16.4133C100 14.0113 98.6243 11.8218 96.4609 10.7808L75.8725 0.873756C73.7862 -0.130129 71.3446 0.11576 69.5135 1.44695C69.252 1.63711 69.0028 1.84943 68.769 2.08341L29.3551 38.0415L12.1872 25.0096C10.589 23.7965 8.35363 23.8959 6.86933 25.2461L1.36303 30.2549C-0.452552 31.9064 -0.454633 34.7627 1.35853 36.417L16.2471 50.0001L1.35853 63.5832C-0.454633 65.2374 -0.452552 68.0938 1.36303 69.7453L6.86933 74.7541C8.35363 76.1043 10.589 76.2037 12.1872 74.9905L29.3551 61.9587L68.769 97.9167C69.3925 98.5406 70.1246 99.0104 70.9119 99.3171ZM75.0152 27.2989L45.1091 50.0001L75.0152 72.7012V27.2989Z" fill="white"/>
  </mask>
  <g mask="url(#mask0)" transform="matrix(1, 0, 0, 1, 17.156038284301758, 19.277057647705078)">
    <path d="M96.4614 10.7962L75.8569 0.875542C73.4719 -0.272773 70.6217 0.211611 68.75 2.08333L1.29858 63.5832C-0.515693 65.2373 -0.513607 68.0937 1.30308 69.7452L6.81272 74.754C8.29793 76.1042 10.5347 76.2036 12.1338 74.9905L93.3609 13.3699C96.086 11.3026 100 13.2462 100 16.6667V16.4275C100 14.0265 98.6246 11.8378 96.4614 10.7962Z" fill="#0065A9"/>
    <g filter="url(#filter0_d)">
      <path d="M96.4614 89.2038L75.8569 99.1245C73.4719 100.273 70.6217 99.7884 68.75 97.9167L1.29858 36.4169C-0.515693 34.7627 -0.513607 31.9063 1.30308 30.2548L6.81272 25.246C8.29793 23.8958 10.5347 23.7964 12.1338 25.0095L93.3609 86.6301C96.086 88.6974 100 86.7538 100 83.3334V83.5726C100 85.9735 98.6246 88.1622 96.4614 89.2038Z" fill="#007ACC"/>
    </g>
    <g filter="url(#filter1_d)">
      <path d="M75.8578 99.1263C73.4721 100.274 70.6219 99.7885 68.75 97.9166C71.0564 100.223 75 98.5895 75 95.3278V4.67213C75 1.41039 71.0564 -0.223106 68.75 2.08329C70.6219 0.211402 73.4721 -0.273666 75.8578 0.873633L96.4587 10.7807C98.6234 11.8217 100 14.0112 100 16.4132V83.5871C100 85.9891 98.6234 88.1786 96.4586 89.2196L75.8578 99.1263Z" fill="#1F9CF0"/>
    </g>
    <g style="mix-blend-mode:overlay" opacity="0.25">
      <path fill-rule="evenodd" clip-rule="evenodd" d="M70.8511 99.3171C72.4261 99.9306 74.2221 99.8913 75.8117 99.1264L96.4 89.2197C98.5634 88.1787 99.9392 85.9892 99.9392 83.5871V16.4133C99.9392 14.0112 98.5635 11.8217 96.4001 10.7807L75.8117 0.873695C73.7255 -0.13019 71.2838 0.115699 69.4527 1.44688C69.1912 1.63705 68.942 1.84937 68.7082 2.08335L29.2943 38.0414L12.1264 25.0096C10.5283 23.7964 8.29285 23.8959 6.80855 25.246L1.30225 30.2548C-0.513334 31.9064 -0.515415 34.7627 1.29775 36.4169L16.1863 50L1.29775 63.5832C-0.515415 65.2374 -0.513334 68.0937 1.30225 69.7452L6.80855 74.754C8.29285 76.1042 10.5283 76.2036 12.1264 74.9905L29.2943 61.9586L68.7082 97.9167C69.3317 98.5405 70.0638 99.0104 70.8511 99.3171ZM74.9544 27.2989L45.0483 50L74.9544 72.7012V27.2989Z" fill="url(#paint0_linear)"/>
    </g>
  </g>
  <path d="M 160.03 91.93 Q 156.69 91.93 155.25 88.24 L 141.37 51.61 L 149.66 51.61 L 160.26 81.85 L 160.37 81.85 L 171.03 51.61 L 179.27 51.61 L 163.77 91.93 L 160.03 91.93 Z M 194.46 92.39 Q 188.12 92.39 184.55 88.85 Q 180.98 85.3 180.98 78.97 L 188.81 78.97 Q 188.81 81.96 190.34 83.66 Q 191.87 85.36 194.57 85.36 L 200.97 85.36 Q 203.5 85.36 205.09 84.3 Q 206.67 83.23 206.67 81.44 L 206.67 79.49 Q 206.67 76.66 202.52 75.97 L 191.93 74.19 Q 186.74 73.32 184.06 70.87 Q 181.38 68.43 181.38 64.62 L 181.38 61.4 Q 181.38 58.35 183.03 56.01 Q 184.67 53.68 187.69 52.41 Q 190.72 51.15 194.69 51.15 L 201.2 51.15 Q 204.94 51.15 207.82 52.7 Q 210.7 54.26 212.29 57.05 Q 213.87 59.84 213.87 63.53 L 206.04 63.53 Q 206.04 61.11 204.71 59.64 Q 203.39 58.17 201.2 58.17 L 194.69 58.17 Q 192.27 58.17 190.8 59.21 Q 189.33 60.25 189.33 61.98 L 189.33 63.53 Q 189.33 66.41 193.31 67.1 L 203.85 68.94 Q 209.09 69.87 211.85 72.2 Q 214.62 74.53 214.62 78.22 L 214.62 82.02 Q 214.62 85.07 212.92 87.43 Q 211.22 89.8 208.17 91.09 Q 205.12 92.39 201.08 92.39 L 194.46 92.39 Z M 250.43 92.39 Q 246 92.39 242.63 90.49 Q 239.26 88.59 237.42 85.1 Q 235.57 81.62 235.57 77.07 L 235.57 66.47 Q 235.57 61.92 237.44 58.43 Q 239.32 54.95 242.74 53.05 Q 246.17 51.15 250.66 51.15 L 256.77 51.15 Q 261.09 51.15 264.37 52.99 Q 267.66 54.83 269.47 58.14 Q 271.28 61.46 271.28 65.83 L 263.45 65.83 Q 263.45 62.38 261.61 60.28 Q 259.76 58.17 256.77 58.17 L 250.66 58.17 Q 247.44 58.17 245.48 60.56 Q 243.52 62.95 243.52 66.81 L 243.52 76.72 Q 243.52 80.58 245.42 82.97 Q 247.32 85.36 250.43 85.36 L 256.65 85.36 Q 259.71 85.36 261.64 83 Q 263.57 80.64 263.57 76.78 L 271.4 76.78 Q 271.4 81.44 269.56 84.99 Q 267.71 88.53 264.37 90.46 Q 261.03 92.39 256.65 92.39 L 250.43 92.39 Z M 287.24 92.39 Q 283.61 92.39 280.81 90.98 Q 278.02 89.57 276.49 86.97 Q 274.97 84.38 274.97 80.98 L 274.97 74.24 Q 274.97 70.85 276.52 68.22 Q 278.08 65.6 280.87 64.16 Q 283.67 62.72 287.29 62.72 L 292.48 62.72 Q 296.11 62.72 298.9 64.16 Q 301.69 65.6 303.25 68.22 Q 304.8 70.85 304.8 74.24 L 304.8 80.98 Q 304.8 84.38 303.25 86.97 Q 301.69 89.57 298.9 90.98 Q 296.11 92.39 292.42 92.39 L 287.24 92.39 Z M 292.31 85.65 Q 294.44 85.65 295.7 84.18 Q 296.97 82.71 296.97 80.35 L 296.97 74.76 Q 296.97 72.4 295.7 70.93 Q 294.44 69.46 292.36 69.46 L 287.41 69.46 Q 285.34 69.46 284.07 70.93 Q 282.8 72.4 282.8 74.76 L 282.8 80.35 Q 282.8 82.71 284.07 84.18 Q 285.34 85.65 287.35 85.65 Z M 320.58 92.39 Q 315.45 92.39 312.31 89.28 Q 309.17 86.17 309.17 81.1 L 309.17 74.53 Q 309.17 71.02 310.67 68.34 Q 312.17 65.66 314.87 64.19 Q 317.58 62.72 321.15 62.72 L 324.32 62.72 Q 325.99 62.72 327.72 63.44 Q 329.45 64.16 330.6 65.37 L 330.6 51.61 L 338.43 51.61 L 338.43 91.93 L 331.18 91.93 L 331.18 88.13 Q 330.02 90.03 328.06 91.21 Q 326.11 92.39 323.98 92.39 L 320.58 92.39 Z M 324.84 85.65 Q 327.2 85.65 328.78 83.95 Q 330.37 82.25 330.6 79.43 L 330.6 74.42 Q 330.2 72.17 328.84 70.82 Q 327.49 69.46 325.65 69.46 L 322.13 69.46 Q 319.83 69.46 318.42 71.02 Q 317.01 72.57 317.01 75.11 L 317.01 80.52 Q 317.01 82.83 318.27 84.24 Q 319.54 85.65 321.56 85.65 Z M 356.3 92.39 Q 352.67 92.39 349.87 91.03 Q 347.08 89.68 345.53 87.23 Q 343.97 84.78 343.97 81.62 L 343.97 74.19 Q 343.97 70.79 345.53 68.2 Q 347.08 65.6 349.87 64.16 Q 352.67 62.72 356.3 62.72 L 360.9 62.72 Q 366.43 62.72 369.77 65.83 Q 373.12 68.94 373.12 74.13 L 373.12 80.23 L 351.8 80.23 L 351.8 81.62 Q 351.8 83.52 353.01 84.67 Q 354.22 85.82 356.3 85.82 L 360.79 85.82 Q 362.81 85.82 364.04 84.93 Q 365.28 84.04 365.28 82.6 L 373 82.6 Q 373 85.48 371.45 87.72 Q 369.89 89.97 367.1 91.18 Q 364.3 92.39 360.67 92.39 L 356.3 92.39 Z M 365.4 74.59 L 365.4 74.13 Q 365.4 71.88 364.19 70.53 Q 362.98 69.18 360.96 69.18 L 356.3 69.18 Q 354.22 69.18 352.96 70.62 Q 351.69 72.06 351.69 74.42 L 351.69 74.59 Z"/>
</svg>