<?xml version="1.0"?>
<svg width="196" height="64" xmlns="http://www.w3.org/2000/svg" xmlns:svg="http://www.w3.org/2000/svg">
 <g class="layer">
  <title>Layer 1</title>
  <path d="m91.77,15.96c-1.45,6.62 -6.29,28.67 -6.29,28.67l9.73,0c0.58,-2.72 1.03,-5.22 1.7,-7.98c1.17,-4.9 2.48,-6.84 5.96,-6.84c1.53,0 3.12,0.52 3.12,2.62c0,0.95 -2.19,10.3 -2.57,12.2l9.68,0s3,-14.55 3.03,-14.73c0.1,-0.49 0.32,-1.92 0.32,-1.92c0,-3.48 -4.53,-5.12 -6.88,-5.19c-1.71,-0.05 -0.42,-0.03 -2.16,0c-2.78,0.05 -6.5,1.6 -8.12,3.26l-0.18,0.14l0.09,-0.23l2.2,-9.81a0.31,0.31 0 0 0 -0.09,-0.19l-9.54,0l0,0.01zm-46.06,6.56c-0.96,-0.02 -2.53,-0.02 -5.05,0.05c-5.04,0.12 -12.57,1.67 -12.57,8.9c0,4.08 3.79,4.44 7.16,4.77c2.63,0.26 5.23,0.57 7.8,0.82c0.74,0.07 1.47,0.23 1.47,1.06c0,1.39 -1.15,1.83 -2.76,1.98c-1.61,0.14 -1.97,0 -1.97,0c-1.01,0 -2.75,-0.61 -2.53,-2.07l-11.42,0l0,1.7c0,5.47 8.83,5.48 10.46,5.69l2.85,0l4.35,-0.14c5.82,-0.38 12.11,-2.12 12.39,-9.08c0.19,-4.8 -5.94,-4.66 -8.63,-4.96l-0.73,0c-0.14,0 -4.3,-0.42 -6.38,-0.64c-0.32,-0.04 -1.74,-0.24 -1.74,-1.1c0,-1.7 3.13,-1.64 3.81,-1.64c1.1,0 3.48,-0.05 3.4,1.83l10.78,0c0.02,-0.41 0.18,-0.77 0.18,-1.19c0,-4.84 -6.21,-5.75 -9.59,-5.92c0,0 -0.33,-0.04 -1.28,-0.05zm28.99,0c-0.42,-0.02 -1.01,-0.01 -3.53,0.05c-5.05,0.1 -12.61,1.72 -12.61,8.94c0,4.08 3.79,4.44 7.15,4.77c2.63,0.26 5.24,0.57 7.81,0.82c0.74,0.07 1.46,0.24 1.46,1.06c0,1.39 -1.43,1.89 -2.75,1.98c-1.33,0.08 -1.98,0 -1.98,0c-1.01,0 -2.74,-0.57 -2.52,-2.02l-11.42,0l0,1.7c-0.01,5.17 8.79,5.51 10.45,5.6l2.85,0.09l4.36,-0.14c5.82,-0.39 12.09,-2.13 12.39,-9.09c0.19,-4.58 -5.73,-4.52 -8.54,-4.91l-0.82,-0.09c-0.14,0 -4.3,-0.38 -6.38,-0.6c-0.32,-0.04 -1.7,-0.3 -1.7,-1.15c0,-1.7 3.08,-1.65 3.76,-1.65c1.1,0 3.49,-0.05 3.4,1.83l10.78,0c0.03,-0.4 0.19,-0.76 0.19,-1.19c0,-4.84 -6.24,-5.77 -9.59,-5.87c-2.05,-0.06 -2.33,-0.13 -2.76,-0.14zm-54.9,-7.16c0,-1.77 -1.26,-3.13 -3.13,-3.13c-1.74,0 -3.16,1.36 -3.16,3.13c0,1.65 1.35,3.16 3.12,3.16c1.68,0 3.17,-1.32 3.17,-3.16zm8.57,-7.39c0,-1.35 -0.88,-3.07 -2.75,-3.07c-1.71,0 -2.57,1.5 -2.57,2.85c0,1.3 0.92,3.21 2.76,3.21c1.7,0 2.57,-1.67 2.57,-2.98zm-7.66,49.96c-1.56,0 -3.62,2.04 -3.62,3.58c0,0.78 0.36,1.19 1.22,1.19c1.11,0 2.57,-0.95 3.26,-2.34c0.14,-0.28 0.23,-0.74 0.23,-0.83l0,-0.78c0,-0.65 -0.64,-0.82 -1.09,-0.82zm-6.65,-3.81c-1.73,0 -4.13,1.81 -4.13,3.81c0,0.99 0.61,1.46 1.52,1.46c1.65,0 4.26,-1.73 4.26,-3.85c0,-1.05 -0.73,-1.43 -1.65,-1.43zm-4.77,-24.64c1.64,0 3.89,-1.12 3.89,-3.43c0,-1.75 -1.44,-2.85 -3.02,-2.85c-1.73,0 -3.95,1.19 -3.95,3.44c0,1.73 1.39,2.84 3.07,2.84zm1.97,18.85c0,-1.35 -0.99,-1.88 -2.1,-1.88c-1.63,0 -4.45,1.56 -4.45,3.81c0,1.26 0.87,1.83 2.07,1.83c1.54,0 4.49,-1.39 4.49,-3.76l0,-0.01zm-1.1,-10.45c0,-1.61 -1.31,-2.34 -2.7,-2.34c-0.09,0 -0.15,-0.03 -0.51,0c-2.01,0.16 -3.9,1.91 -3.9,3.67c0,1.64 1.5,2.34 2.8,2.34c1.68,0 4.31,-1.29 4.31,-3.67zm17.85,20.64c-1.46,0 -3.17,1.95 -3.17,3.3c0,0.2 0.01,0.59 0.37,0.83c0.38,0.24 1.06,0.27 1.88,-0.28c1.1,-0.73 1.83,-2.03 1.83,-2.89c0,-0.47 -0.3,-0.96 -0.91,-0.96zm20.78,-52.57c-1.23,0 -1.65,1.91 -1.65,2.52c0,0.61 0.21,1.97 1.28,1.97c1.26,0 1.65,-1.91 1.65,-2.52c0,-0.52 -0.28,-1.97 -1.28,-1.98l0,0.01zm3.99,5.04c-1.14,0 -1.56,1.86 -1.56,2.43c0,0.48 0.18,1.61 1.06,1.61c1.1,0 1.51,-1.82 1.51,-2.39c0,-0.38 -0.16,-1.65 -1,-1.65zm-10,-8.48c-1.43,0 -1.89,1.78 -1.89,2.61c0,0.55 0.34,2.49 1.71,2.48c1.36,-0.01 1.87,-1.78 1.87,-2.66c0,-0.69 -0.33,-2.43 -1.69,-2.43zm-1.93,50.37c-1.29,0 -2.2,1.98 -2.2,2.76c0,0.41 0.1,0.82 0.69,0.82c1.28,0 2.2,-1.94 2.2,-2.76c0,-0.37 -0.14,-0.82 -0.7,-0.82zm-6.05,-51.1c-1.55,0 -2.16,1.85 -2.16,2.84c0,1.05 0.77,2.85 2.29,2.85c1.55,0 2.14,-1.84 2.11,-2.79c-0.04,-1.22 -0.54,-2.89 -2.25,-2.89zm0,54.81c-1.42,0 -2.61,2.03 -2.61,3.08c0,0.52 0.23,0.82 0.78,0.82c1.28,0 2.62,-1.96 2.62,-2.98c0,-0.44 -0.1,-0.91 -0.79,-0.91l0,-0.01z" fill="#231F20" id="svg_1" transform="matrix(1 0 0 1 0 0)">( web )</path>
  <text fill="#000000" font-family="Fantasy" font-size="39" id="svg_5" stroke-width="0" text-anchor="middle" transform="matrix(0.701595 0 0 0.631024 20.2502 15.3512)" x="194.91" xml:space="preserve" y="46.82">(web)</text>
 </g>
</svg>